<mxfile host="app.diagrams.net" modified="2023-11-22T17:22:17.478Z" agent="Mozilla/5.0 (Windows NT 10.0; Win64; x64) AppleWebKit/537.36 (KHTML, like Gecko) Chrome/119.0.0.0 Safari/537.36" etag="V-4yqY4PbAe3FEx-Vfgq" version="22.1.3" type="device">
  <diagram name="Trang-1" id="IiDr1ddLt6QPCpOkkiDG">
    <mxGraphModel dx="3473" dy="2466" grid="1" gridSize="10" guides="1" tooltips="1" connect="1" arrows="1" fold="1" page="1" pageScale="1" pageWidth="827" pageHeight="1169" math="0" shadow="0">
      <root>
        <mxCell id="0" />
        <mxCell id="1" parent="0" />
        <mxCell id="mT-BDktY9lmR7B7DI0jL-49" value="&lt;b style=&quot;border-color: var(--border-color); font-size: 30px;&quot;&gt;Trụ sở chính&lt;/b&gt;" style="text;html=1;strokeColor=none;fillColor=none;align=center;verticalAlign=middle;whiteSpace=wrap;rounded=0;" parent="1" vertex="1">
          <mxGeometry x="-390" y="400" width="280" height="80" as="geometry" />
        </mxCell>
        <mxCell id="mT-BDktY9lmR7B7DI0jL-50" value="" style="shape=flexArrow;endArrow=classic;html=1;rounded=0;strokeWidth=3;fillColor=#f8cecc;strokeColor=#b85450;endWidth=82;endSize=23.4;width=44;" parent="1" edge="1">
          <mxGeometry width="50" height="50" relative="1" as="geometry">
            <mxPoint x="70" y="150" as="sourcePoint" />
            <mxPoint x="250" y="150" as="targetPoint" />
            <Array as="points">
              <mxPoint x="180" y="150" />
            </Array>
          </mxGeometry>
        </mxCell>
        <mxCell id="mT-BDktY9lmR7B7DI0jL-59" value="" style="shape=table;startSize=0;container=1;collapsible=0;childLayout=tableLayout;rounded=0;align=center;verticalAlign=middle;fontFamily=Helvetica;fontSize=12;fontColor=default;fillColor=none;gradientColor=none;html=1;strokeWidth=3;" parent="1" vertex="1">
          <mxGeometry x="660" y="180" width="280" height="320" as="geometry" />
        </mxCell>
        <mxCell id="mT-BDktY9lmR7B7DI0jL-60" value="" style="shape=tableRow;horizontal=0;startSize=0;swimlaneHead=0;swimlaneBody=0;strokeColor=inherit;top=0;left=0;bottom=0;right=0;collapsible=0;dropTarget=0;fillColor=none;points=[[0,0.5],[1,0.5]];portConstraint=eastwest;rounded=0;align=center;verticalAlign=middle;fontFamily=Helvetica;fontSize=12;fontColor=default;html=1;" parent="mT-BDktY9lmR7B7DI0jL-59" vertex="1">
          <mxGeometry width="280" height="160" as="geometry" />
        </mxCell>
        <mxCell id="mT-BDktY9lmR7B7DI0jL-61" value="&lt;b style=&quot;border-color: var(--border-color); font-size: 30px;&quot;&gt;Tầng 2&lt;/b&gt;" style="shape=partialRectangle;html=1;whiteSpace=wrap;connectable=0;strokeColor=inherit;overflow=hidden;fillColor=none;top=0;left=0;bottom=0;right=0;pointerEvents=1;rounded=0;align=center;verticalAlign=middle;fontFamily=Helvetica;fontSize=12;fontColor=default;" parent="mT-BDktY9lmR7B7DI0jL-60" vertex="1">
          <mxGeometry width="280" height="160" as="geometry">
            <mxRectangle width="280" height="160" as="alternateBounds" />
          </mxGeometry>
        </mxCell>
        <mxCell id="mT-BDktY9lmR7B7DI0jL-62" value="" style="shape=tableRow;horizontal=0;startSize=0;swimlaneHead=0;swimlaneBody=0;strokeColor=inherit;top=0;left=0;bottom=0;right=0;collapsible=0;dropTarget=0;fillColor=none;points=[[0,0.5],[1,0.5]];portConstraint=eastwest;rounded=0;align=center;verticalAlign=middle;fontFamily=Helvetica;fontSize=12;fontColor=default;html=1;" parent="mT-BDktY9lmR7B7DI0jL-59" vertex="1">
          <mxGeometry y="160" width="280" height="160" as="geometry" />
        </mxCell>
        <mxCell id="mT-BDktY9lmR7B7DI0jL-63" value="&lt;span style=&quot;border-color: var(--border-color); font-size: 30px;&quot;&gt;Tester&lt;/span&gt;" style="shape=partialRectangle;html=1;whiteSpace=wrap;connectable=0;strokeColor=inherit;overflow=hidden;fillColor=none;top=0;left=0;bottom=0;right=0;pointerEvents=1;rounded=0;align=center;verticalAlign=middle;fontFamily=Helvetica;fontSize=12;fontColor=default;" parent="mT-BDktY9lmR7B7DI0jL-62" vertex="1">
          <mxGeometry width="280" height="160" as="geometry">
            <mxRectangle width="280" height="160" as="alternateBounds" />
          </mxGeometry>
        </mxCell>
        <mxCell id="mT-BDktY9lmR7B7DI0jL-71" value="" style="shape=table;startSize=0;container=1;collapsible=0;childLayout=tableLayout;rounded=0;align=center;verticalAlign=middle;fontFamily=Helvetica;fontSize=12;fontColor=default;fillColor=none;gradientColor=none;html=1;strokeWidth=3;" parent="1" vertex="1">
          <mxGeometry x="1300" y="-190" width="280" height="330" as="geometry" />
        </mxCell>
        <mxCell id="mT-BDktY9lmR7B7DI0jL-74" value="" style="shape=tableRow;horizontal=0;startSize=0;swimlaneHead=0;swimlaneBody=0;strokeColor=inherit;top=0;left=0;bottom=0;right=0;collapsible=0;dropTarget=0;fillColor=none;points=[[0,0.5],[1,0.5]];portConstraint=eastwest;rounded=0;align=center;verticalAlign=middle;fontFamily=Helvetica;fontSize=12;fontColor=default;html=1;" parent="mT-BDktY9lmR7B7DI0jL-71" vertex="1">
          <mxGeometry width="280" height="165" as="geometry" />
        </mxCell>
        <mxCell id="mT-BDktY9lmR7B7DI0jL-75" value="&lt;b style=&quot;border-color: var(--border-color); font-size: 30px;&quot;&gt;Tầng 5&lt;/b&gt;" style="shape=partialRectangle;html=1;whiteSpace=wrap;connectable=0;strokeColor=inherit;overflow=hidden;fillColor=none;top=0;left=0;bottom=0;right=0;pointerEvents=1;rounded=0;align=center;verticalAlign=middle;fontFamily=Helvetica;fontSize=12;fontColor=default;" parent="mT-BDktY9lmR7B7DI0jL-74" vertex="1">
          <mxGeometry width="280" height="165" as="geometry">
            <mxRectangle width="280" height="165" as="alternateBounds" />
          </mxGeometry>
        </mxCell>
        <mxCell id="mT-BDktY9lmR7B7DI0jL-72" value="" style="shape=tableRow;horizontal=0;startSize=0;swimlaneHead=0;swimlaneBody=0;strokeColor=inherit;top=0;left=0;bottom=0;right=0;collapsible=0;dropTarget=0;fillColor=none;points=[[0,0.5],[1,0.5]];portConstraint=eastwest;rounded=0;align=center;verticalAlign=middle;fontFamily=Helvetica;fontSize=12;fontColor=default;html=1;" parent="mT-BDktY9lmR7B7DI0jL-71" vertex="1">
          <mxGeometry y="165" width="280" height="165" as="geometry" />
        </mxCell>
        <mxCell id="mT-BDktY9lmR7B7DI0jL-73" value="&lt;span style=&quot;border-color: var(--border-color); font-size: 30px;&quot;&gt;Business Analyst&lt;/span&gt;" style="shape=partialRectangle;html=1;whiteSpace=wrap;connectable=0;strokeColor=inherit;overflow=hidden;fillColor=none;top=0;left=0;bottom=0;right=0;pointerEvents=1;rounded=0;align=center;verticalAlign=middle;fontFamily=Helvetica;fontSize=12;fontColor=default;" parent="mT-BDktY9lmR7B7DI0jL-72" vertex="1">
          <mxGeometry width="280" height="165" as="geometry">
            <mxRectangle width="280" height="165" as="alternateBounds" />
          </mxGeometry>
        </mxCell>
        <mxCell id="mT-BDktY9lmR7B7DI0jL-117" value="" style="endArrow=none;html=1;rounded=0;fontFamily=Helvetica;fontSize=12;fontColor=default;strokeColor=#FFFFFF;" parent="1" edge="1">
          <mxGeometry width="50" height="50" relative="1" as="geometry">
            <mxPoint x="-290" y="320" as="sourcePoint" />
            <mxPoint x="-280" y="270" as="targetPoint" />
          </mxGeometry>
        </mxCell>
        <mxCell id="mT-BDktY9lmR7B7DI0jL-119" value="" style="endArrow=none;html=1;rounded=0;fontFamily=Helvetica;fontSize=12;fontColor=default;strokeColor=#FFFFFF;" parent="1" edge="1">
          <mxGeometry width="50" height="50" relative="1" as="geometry">
            <mxPoint x="770" y="-30" as="sourcePoint" />
            <mxPoint x="840" y="-30" as="targetPoint" />
          </mxGeometry>
        </mxCell>
        <mxCell id="mT-BDktY9lmR7B7DI0jL-120" value="" style="endArrow=none;html=1;rounded=0;fontFamily=Helvetica;fontSize=12;fontColor=default;strokeColor=#FFFFFF;" parent="1" edge="1">
          <mxGeometry width="50" height="50" relative="1" as="geometry">
            <mxPoint x="850" y="530" as="sourcePoint" />
            <mxPoint x="780" y="540" as="targetPoint" />
          </mxGeometry>
        </mxCell>
        <mxCell id="mT-BDktY9lmR7B7DI0jL-128" value="" style="shape=table;startSize=0;container=1;collapsible=0;childLayout=tableLayout;rounded=0;align=center;verticalAlign=middle;fontFamily=Helvetica;fontSize=12;fontColor=default;fillColor=none;gradientColor=none;html=1;strokeWidth=3;points=[[0,0,0,0,0],[0,0.25,0,0,0],[0,0.5,0,0,0],[0,0.75,0,0,0],[0,1,0,0,0],[0.25,0,0,0,0],[0.25,1,0,0,0],[0.5,0,0,0,0],[0.5,1,0,0,0],[0.75,0,0,0,0],[0.75,1,0,0,0],[1,0,0,0,0],[1,0.25,0,0,0],[1,0.5,0,0,0],[1,0.75,0,0,0],[1,1,0,0,0]];" parent="1" vertex="1">
          <mxGeometry x="660" y="-194" width="280" height="334" as="geometry" />
        </mxCell>
        <mxCell id="mT-BDktY9lmR7B7DI0jL-129" value="" style="shape=tableRow;horizontal=0;startSize=0;swimlaneHead=0;swimlaneBody=0;strokeColor=inherit;top=0;left=0;bottom=0;right=0;collapsible=0;dropTarget=0;fillColor=none;points=[[0,0.5],[1,0.5]];portConstraint=eastwest;rounded=0;align=center;verticalAlign=middle;fontFamily=Helvetica;fontSize=12;fontColor=default;html=1;strokeWidth=3;" parent="mT-BDktY9lmR7B7DI0jL-128" vertex="1">
          <mxGeometry width="280" height="111" as="geometry" />
        </mxCell>
        <mxCell id="mT-BDktY9lmR7B7DI0jL-130" value="&lt;span style=&quot;border-color: var(--border-color); font-size: 30px;&quot;&gt;Data Center&lt;/span&gt;" style="shape=partialRectangle;html=1;whiteSpace=wrap;connectable=0;strokeColor=inherit;overflow=hidden;fillColor=none;top=0;left=0;bottom=0;right=0;pointerEvents=1;rounded=0;align=center;verticalAlign=middle;fontFamily=Helvetica;fontSize=12;fontColor=default;strokeWidth=3;" parent="mT-BDktY9lmR7B7DI0jL-129" vertex="1">
          <mxGeometry width="280" height="111" as="geometry">
            <mxRectangle width="280" height="111" as="alternateBounds" />
          </mxGeometry>
        </mxCell>
        <mxCell id="mT-BDktY9lmR7B7DI0jL-131" value="" style="shape=tableRow;horizontal=0;startSize=0;swimlaneHead=0;swimlaneBody=0;strokeColor=inherit;top=0;left=0;bottom=0;right=0;collapsible=0;dropTarget=0;fillColor=none;points=[[0,0.5],[1,0.5]];portConstraint=eastwest;rounded=0;align=center;verticalAlign=middle;fontFamily=Helvetica;fontSize=12;fontColor=default;html=1;strokeWidth=3;" parent="mT-BDktY9lmR7B7DI0jL-128" vertex="1">
          <mxGeometry y="111" width="280" height="112" as="geometry" />
        </mxCell>
        <mxCell id="mT-BDktY9lmR7B7DI0jL-132" value="&lt;b style=&quot;border-color: var(--border-color); font-size: 30px;&quot;&gt;Tầng 1&lt;/b&gt;" style="shape=partialRectangle;html=1;whiteSpace=wrap;connectable=0;strokeColor=inherit;overflow=hidden;fillColor=none;top=0;left=0;bottom=0;right=0;pointerEvents=1;rounded=0;align=center;verticalAlign=middle;fontFamily=Helvetica;fontSize=12;fontColor=default;strokeWidth=3;" parent="mT-BDktY9lmR7B7DI0jL-131" vertex="1">
          <mxGeometry width="280" height="112" as="geometry">
            <mxRectangle width="280" height="112" as="alternateBounds" />
          </mxGeometry>
        </mxCell>
        <mxCell id="mT-BDktY9lmR7B7DI0jL-134" value="" style="shape=tableRow;horizontal=0;startSize=0;swimlaneHead=0;swimlaneBody=0;strokeColor=inherit;top=0;left=0;bottom=0;right=0;collapsible=0;dropTarget=0;fillColor=none;points=[[0,0.5],[1,0.5]];portConstraint=eastwest;rounded=0;align=center;verticalAlign=middle;fontFamily=Helvetica;fontSize=12;fontColor=default;html=1;" parent="mT-BDktY9lmR7B7DI0jL-128" vertex="1">
          <mxGeometry y="223" width="280" height="111" as="geometry" />
        </mxCell>
        <mxCell id="mT-BDktY9lmR7B7DI0jL-135" value="&lt;span style=&quot;border-color: var(--border-color); font-size: 30px;&quot;&gt;IT&lt;/span&gt;" style="shape=partialRectangle;html=1;whiteSpace=wrap;connectable=0;strokeColor=inherit;overflow=hidden;fillColor=none;top=0;left=0;bottom=0;right=0;pointerEvents=1;rounded=0;align=center;verticalAlign=middle;fontFamily=Helvetica;fontSize=12;fontColor=default;" parent="mT-BDktY9lmR7B7DI0jL-134" vertex="1">
          <mxGeometry width="280" height="111" as="geometry">
            <mxRectangle width="280" height="111" as="alternateBounds" />
          </mxGeometry>
        </mxCell>
        <mxCell id="mT-BDktY9lmR7B7DI0jL-136" value="" style="shape=table;startSize=0;container=1;collapsible=0;childLayout=tableLayout;rounded=0;align=center;verticalAlign=middle;fontFamily=Helvetica;fontSize=12;fontColor=default;fillColor=none;gradientColor=none;html=1;strokeWidth=3;" parent="1" vertex="1">
          <mxGeometry x="1300" y="180" width="280" height="320" as="geometry" />
        </mxCell>
        <mxCell id="mT-BDktY9lmR7B7DI0jL-137" value="" style="shape=tableRow;horizontal=0;startSize=0;swimlaneHead=0;swimlaneBody=0;strokeColor=inherit;top=0;left=0;bottom=0;right=0;collapsible=0;dropTarget=0;fillColor=none;points=[[0,0.5],[1,0.5]];portConstraint=eastwest;rounded=0;align=center;verticalAlign=middle;fontFamily=Helvetica;fontSize=12;fontColor=default;html=1;" parent="mT-BDktY9lmR7B7DI0jL-136" vertex="1">
          <mxGeometry width="280" height="160" as="geometry" />
        </mxCell>
        <mxCell id="mT-BDktY9lmR7B7DI0jL-138" value="&lt;b style=&quot;border-color: var(--border-color); font-size: 30px;&quot;&gt;Tầng 6&lt;/b&gt;" style="shape=partialRectangle;html=1;whiteSpace=wrap;connectable=0;strokeColor=inherit;overflow=hidden;fillColor=none;top=0;left=0;bottom=0;right=0;pointerEvents=1;rounded=0;align=center;verticalAlign=middle;fontFamily=Helvetica;fontSize=12;fontColor=default;" parent="mT-BDktY9lmR7B7DI0jL-137" vertex="1">
          <mxGeometry width="280" height="160" as="geometry">
            <mxRectangle width="280" height="160" as="alternateBounds" />
          </mxGeometry>
        </mxCell>
        <mxCell id="mT-BDktY9lmR7B7DI0jL-139" value="" style="shape=tableRow;horizontal=0;startSize=0;swimlaneHead=0;swimlaneBody=0;strokeColor=inherit;top=0;left=0;bottom=0;right=0;collapsible=0;dropTarget=0;fillColor=none;points=[[0,0.5],[1,0.5]];portConstraint=eastwest;rounded=0;align=center;verticalAlign=middle;fontFamily=Helvetica;fontSize=12;fontColor=default;html=1;" parent="mT-BDktY9lmR7B7DI0jL-136" vertex="1">
          <mxGeometry y="160" width="280" height="160" as="geometry" />
        </mxCell>
        <mxCell id="mT-BDktY9lmR7B7DI0jL-140" value="&lt;span style=&quot;border-color: var(--border-color); font-size: 30px;&quot;&gt;CEO&lt;/span&gt;" style="shape=partialRectangle;html=1;whiteSpace=wrap;connectable=0;strokeColor=inherit;overflow=hidden;fillColor=none;top=0;left=0;bottom=0;right=0;pointerEvents=1;rounded=0;align=center;verticalAlign=middle;fontFamily=Helvetica;fontSize=12;fontColor=default;" parent="mT-BDktY9lmR7B7DI0jL-139" vertex="1">
          <mxGeometry width="280" height="160" as="geometry">
            <mxRectangle width="280" height="160" as="alternateBounds" />
          </mxGeometry>
        </mxCell>
        <mxCell id="mT-BDktY9lmR7B7DI0jL-142" value="" style="endArrow=none;html=1;rounded=0;fontFamily=Helvetica;fontSize=12;fontColor=default;strokeColor=#FFFFFF;" parent="1" edge="1">
          <mxGeometry width="50" height="50" relative="1" as="geometry">
            <mxPoint x="1300" y="280" as="sourcePoint" />
            <mxPoint x="1310" y="210" as="targetPoint" />
          </mxGeometry>
        </mxCell>
        <mxCell id="cKJjC52axEM_4Z3GMPh4-2" value="" style="image;points=[];aspect=fixed;html=1;align=center;shadow=0;dashed=0;image=img/lib/allied_telesis/buildings/Long_Building.svg;" parent="1" vertex="1">
          <mxGeometry x="-420" y="-75.91" width="421.4" height="435.51" as="geometry" />
        </mxCell>
        <mxCell id="yJnb062Yw4gH2rbeKX1r-1" value="" style="shape=table;startSize=0;container=1;collapsible=0;childLayout=tableLayout;strokeWidth=3;" vertex="1" parent="1">
          <mxGeometry x="270" y="-245" width="340" height="830" as="geometry" />
        </mxCell>
        <mxCell id="yJnb062Yw4gH2rbeKX1r-2" value="" style="shape=tableRow;horizontal=0;startSize=0;swimlaneHead=0;swimlaneBody=0;strokeColor=inherit;top=0;left=0;bottom=0;right=0;collapsible=0;dropTarget=0;fillColor=none;points=[[0,0.5],[1,0.5]];portConstraint=eastwest;" vertex="1" parent="yJnb062Yw4gH2rbeKX1r-1">
          <mxGeometry width="340" height="118" as="geometry" />
        </mxCell>
        <mxCell id="yJnb062Yw4gH2rbeKX1r-3" value="&lt;b style=&quot;border-color: var(--border-color); font-size: 30px;&quot;&gt;Tầng 1&lt;/b&gt;" style="shape=partialRectangle;html=1;whiteSpace=wrap;connectable=0;strokeColor=inherit;overflow=hidden;fillColor=none;top=0;left=0;bottom=0;right=0;pointerEvents=1;" vertex="1" parent="yJnb062Yw4gH2rbeKX1r-2">
          <mxGeometry width="340" height="118" as="geometry">
            <mxRectangle width="340" height="118" as="alternateBounds" />
          </mxGeometry>
        </mxCell>
        <mxCell id="yJnb062Yw4gH2rbeKX1r-4" value="" style="shape=tableRow;horizontal=0;startSize=0;swimlaneHead=0;swimlaneBody=0;strokeColor=inherit;top=0;left=0;bottom=0;right=0;collapsible=0;dropTarget=0;fillColor=none;points=[[0,0.5],[1,0.5]];portConstraint=eastwest;" vertex="1" parent="yJnb062Yw4gH2rbeKX1r-1">
          <mxGeometry y="118" width="340" height="119" as="geometry" />
        </mxCell>
        <mxCell id="yJnb062Yw4gH2rbeKX1r-5" value="&lt;b style=&quot;border-color: var(--border-color); font-size: 30px;&quot;&gt;Tầng 2&lt;/b&gt;" style="shape=partialRectangle;html=1;whiteSpace=wrap;connectable=0;strokeColor=inherit;overflow=hidden;fillColor=none;top=0;left=0;bottom=0;right=0;pointerEvents=1;" vertex="1" parent="yJnb062Yw4gH2rbeKX1r-4">
          <mxGeometry width="340" height="119" as="geometry">
            <mxRectangle width="340" height="119" as="alternateBounds" />
          </mxGeometry>
        </mxCell>
        <mxCell id="yJnb062Yw4gH2rbeKX1r-6" value="" style="shape=tableRow;horizontal=0;startSize=0;swimlaneHead=0;swimlaneBody=0;strokeColor=inherit;top=0;left=0;bottom=0;right=0;collapsible=0;dropTarget=0;fillColor=none;points=[[0,0.5],[1,0.5]];portConstraint=eastwest;" vertex="1" parent="yJnb062Yw4gH2rbeKX1r-1">
          <mxGeometry y="237" width="340" height="118" as="geometry" />
        </mxCell>
        <mxCell id="yJnb062Yw4gH2rbeKX1r-7" value="&lt;b style=&quot;border-color: var(--border-color); font-size: 30px;&quot;&gt;Tầng 3&lt;/b&gt;" style="shape=partialRectangle;html=1;whiteSpace=wrap;connectable=0;strokeColor=inherit;overflow=hidden;fillColor=none;top=0;left=0;bottom=0;right=0;pointerEvents=1;" vertex="1" parent="yJnb062Yw4gH2rbeKX1r-6">
          <mxGeometry width="340" height="118" as="geometry">
            <mxRectangle width="340" height="118" as="alternateBounds" />
          </mxGeometry>
        </mxCell>
        <mxCell id="yJnb062Yw4gH2rbeKX1r-8" value="" style="shape=tableRow;horizontal=0;startSize=0;swimlaneHead=0;swimlaneBody=0;strokeColor=inherit;top=0;left=0;bottom=0;right=0;collapsible=0;dropTarget=0;fillColor=none;points=[[0,0.5],[1,0.5]];portConstraint=eastwest;" vertex="1" parent="yJnb062Yw4gH2rbeKX1r-1">
          <mxGeometry y="355" width="340" height="120" as="geometry" />
        </mxCell>
        <mxCell id="yJnb062Yw4gH2rbeKX1r-9" value="&lt;b style=&quot;border-color: var(--border-color); font-size: 30px;&quot;&gt;Tầng 4&lt;/b&gt;" style="shape=partialRectangle;html=1;whiteSpace=wrap;connectable=0;strokeColor=inherit;overflow=hidden;fillColor=none;top=0;left=0;bottom=0;right=0;pointerEvents=1;" vertex="1" parent="yJnb062Yw4gH2rbeKX1r-8">
          <mxGeometry width="340" height="120" as="geometry">
            <mxRectangle width="340" height="120" as="alternateBounds" />
          </mxGeometry>
        </mxCell>
        <mxCell id="yJnb062Yw4gH2rbeKX1r-10" value="" style="shape=tableRow;horizontal=0;startSize=0;swimlaneHead=0;swimlaneBody=0;strokeColor=inherit;top=0;left=0;bottom=0;right=0;collapsible=0;dropTarget=0;fillColor=none;points=[[0,0.5],[1,0.5]];portConstraint=eastwest;" vertex="1" parent="yJnb062Yw4gH2rbeKX1r-1">
          <mxGeometry y="475" width="340" height="118" as="geometry" />
        </mxCell>
        <mxCell id="yJnb062Yw4gH2rbeKX1r-11" value="&lt;b style=&quot;border-color: var(--border-color); font-size: 30px;&quot;&gt;Tầng 5&lt;/b&gt;" style="shape=partialRectangle;html=1;whiteSpace=wrap;connectable=0;strokeColor=inherit;overflow=hidden;fillColor=none;top=0;left=0;bottom=0;right=0;pointerEvents=1;" vertex="1" parent="yJnb062Yw4gH2rbeKX1r-10">
          <mxGeometry width="340" height="118" as="geometry">
            <mxRectangle width="340" height="118" as="alternateBounds" />
          </mxGeometry>
        </mxCell>
        <mxCell id="yJnb062Yw4gH2rbeKX1r-12" value="" style="shape=tableRow;horizontal=0;startSize=0;swimlaneHead=0;swimlaneBody=0;strokeColor=inherit;top=0;left=0;bottom=0;right=0;collapsible=0;dropTarget=0;fillColor=none;points=[[0,0.5],[1,0.5]];portConstraint=eastwest;" vertex="1" parent="yJnb062Yw4gH2rbeKX1r-1">
          <mxGeometry y="593" width="340" height="119" as="geometry" />
        </mxCell>
        <mxCell id="yJnb062Yw4gH2rbeKX1r-13" value="&lt;b style=&quot;border-color: var(--border-color); font-size: 30px;&quot;&gt;Tầng 6&lt;/b&gt;" style="shape=partialRectangle;html=1;whiteSpace=wrap;connectable=0;strokeColor=inherit;overflow=hidden;fillColor=none;top=0;left=0;bottom=0;right=0;pointerEvents=1;" vertex="1" parent="yJnb062Yw4gH2rbeKX1r-12">
          <mxGeometry width="340" height="119" as="geometry">
            <mxRectangle width="340" height="119" as="alternateBounds" />
          </mxGeometry>
        </mxCell>
        <mxCell id="yJnb062Yw4gH2rbeKX1r-14" value="" style="shape=tableRow;horizontal=0;startSize=0;swimlaneHead=0;swimlaneBody=0;strokeColor=inherit;top=0;left=0;bottom=0;right=0;collapsible=0;dropTarget=0;fillColor=none;points=[[0,0.5],[1,0.5]];portConstraint=eastwest;" vertex="1" parent="yJnb062Yw4gH2rbeKX1r-1">
          <mxGeometry y="712" width="340" height="118" as="geometry" />
        </mxCell>
        <mxCell id="yJnb062Yw4gH2rbeKX1r-15" value="&lt;b style=&quot;border-color: var(--border-color); font-size: 30px;&quot;&gt;Tầng 7&lt;/b&gt;" style="shape=partialRectangle;html=1;whiteSpace=wrap;connectable=0;strokeColor=inherit;overflow=hidden;fillColor=none;top=0;left=0;bottom=0;right=0;pointerEvents=1;" vertex="1" parent="yJnb062Yw4gH2rbeKX1r-14">
          <mxGeometry width="340" height="118" as="geometry">
            <mxRectangle width="340" height="118" as="alternateBounds" />
          </mxGeometry>
        </mxCell>
        <mxCell id="yJnb062Yw4gH2rbeKX1r-16" value="" style="shape=table;startSize=0;container=1;collapsible=0;childLayout=tableLayout;rounded=0;align=center;verticalAlign=middle;fontFamily=Helvetica;fontSize=12;fontColor=default;fillColor=none;gradientColor=none;html=1;strokeWidth=3;" vertex="1" parent="1">
          <mxGeometry x="980" y="-192" width="280" height="330" as="geometry" />
        </mxCell>
        <mxCell id="yJnb062Yw4gH2rbeKX1r-17" value="" style="shape=tableRow;horizontal=0;startSize=0;swimlaneHead=0;swimlaneBody=0;strokeColor=inherit;top=0;left=0;bottom=0;right=0;collapsible=0;dropTarget=0;fillColor=none;points=[[0,0.5],[1,0.5]];portConstraint=eastwest;rounded=0;align=center;verticalAlign=middle;fontFamily=Helvetica;fontSize=12;fontColor=default;html=1;" vertex="1" parent="yJnb062Yw4gH2rbeKX1r-16">
          <mxGeometry width="280" height="165" as="geometry" />
        </mxCell>
        <mxCell id="yJnb062Yw4gH2rbeKX1r-18" value="&lt;b style=&quot;border-color: var(--border-color); font-size: 30px;&quot;&gt;Tầng 3&lt;/b&gt;" style="shape=partialRectangle;html=1;whiteSpace=wrap;connectable=0;strokeColor=inherit;overflow=hidden;fillColor=none;top=0;left=0;bottom=0;right=0;pointerEvents=1;rounded=0;align=center;verticalAlign=middle;fontFamily=Helvetica;fontSize=12;fontColor=default;" vertex="1" parent="yJnb062Yw4gH2rbeKX1r-17">
          <mxGeometry width="280" height="165" as="geometry">
            <mxRectangle width="280" height="165" as="alternateBounds" />
          </mxGeometry>
        </mxCell>
        <mxCell id="yJnb062Yw4gH2rbeKX1r-19" value="" style="shape=tableRow;horizontal=0;startSize=0;swimlaneHead=0;swimlaneBody=0;strokeColor=inherit;top=0;left=0;bottom=0;right=0;collapsible=0;dropTarget=0;fillColor=none;points=[[0,0.5],[1,0.5]];portConstraint=eastwest;rounded=0;align=center;verticalAlign=middle;fontFamily=Helvetica;fontSize=12;fontColor=default;html=1;" vertex="1" parent="yJnb062Yw4gH2rbeKX1r-16">
          <mxGeometry y="165" width="280" height="165" as="geometry" />
        </mxCell>
        <mxCell id="yJnb062Yw4gH2rbeKX1r-20" value="&lt;span style=&quot;border-color: var(--border-color); font-size: 30px;&quot;&gt;Project Manager&lt;/span&gt;" style="shape=partialRectangle;html=1;whiteSpace=wrap;connectable=0;strokeColor=inherit;overflow=hidden;fillColor=none;top=0;left=0;bottom=0;right=0;pointerEvents=1;rounded=0;align=center;verticalAlign=middle;fontFamily=Helvetica;fontSize=12;fontColor=default;" vertex="1" parent="yJnb062Yw4gH2rbeKX1r-19">
          <mxGeometry width="280" height="165" as="geometry">
            <mxRectangle width="280" height="165" as="alternateBounds" />
          </mxGeometry>
        </mxCell>
        <mxCell id="yJnb062Yw4gH2rbeKX1r-26" value="" style="shape=table;startSize=0;container=1;collapsible=0;childLayout=tableLayout;rounded=0;align=center;verticalAlign=middle;fontFamily=Helvetica;fontSize=12;fontColor=default;fillColor=none;gradientColor=none;html=1;strokeWidth=3;" vertex="1" parent="1">
          <mxGeometry x="1630" width="280" height="320" as="geometry" />
        </mxCell>
        <mxCell id="yJnb062Yw4gH2rbeKX1r-27" value="" style="shape=tableRow;horizontal=0;startSize=0;swimlaneHead=0;swimlaneBody=0;strokeColor=inherit;top=0;left=0;bottom=0;right=0;collapsible=0;dropTarget=0;fillColor=none;points=[[0,0.5],[1,0.5]];portConstraint=eastwest;rounded=0;align=center;verticalAlign=middle;fontFamily=Helvetica;fontSize=12;fontColor=default;html=1;" vertex="1" parent="yJnb062Yw4gH2rbeKX1r-26">
          <mxGeometry width="280" height="160" as="geometry" />
        </mxCell>
        <mxCell id="yJnb062Yw4gH2rbeKX1r-28" value="&lt;b style=&quot;border-color: var(--border-color); font-size: 30px;&quot;&gt;Tầng 7&lt;/b&gt;" style="shape=partialRectangle;html=1;whiteSpace=wrap;connectable=0;strokeColor=inherit;overflow=hidden;fillColor=none;top=0;left=0;bottom=0;right=0;pointerEvents=1;rounded=0;align=center;verticalAlign=middle;fontFamily=Helvetica;fontSize=12;fontColor=default;" vertex="1" parent="yJnb062Yw4gH2rbeKX1r-27">
          <mxGeometry width="280" height="160" as="geometry">
            <mxRectangle width="280" height="160" as="alternateBounds" />
          </mxGeometry>
        </mxCell>
        <mxCell id="yJnb062Yw4gH2rbeKX1r-29" value="" style="shape=tableRow;horizontal=0;startSize=0;swimlaneHead=0;swimlaneBody=0;strokeColor=inherit;top=0;left=0;bottom=0;right=0;collapsible=0;dropTarget=0;fillColor=none;points=[[0,0.5],[1,0.5]];portConstraint=eastwest;rounded=0;align=center;verticalAlign=middle;fontFamily=Helvetica;fontSize=12;fontColor=default;html=1;" vertex="1" parent="yJnb062Yw4gH2rbeKX1r-26">
          <mxGeometry y="160" width="280" height="160" as="geometry" />
        </mxCell>
        <mxCell id="yJnb062Yw4gH2rbeKX1r-30" value="&lt;span style=&quot;border-color: var(--border-color); font-size: 30px;&quot;&gt;Technical Manager&lt;/span&gt;" style="shape=partialRectangle;html=1;whiteSpace=wrap;connectable=0;strokeColor=inherit;overflow=hidden;fillColor=none;top=0;left=0;bottom=0;right=0;pointerEvents=1;rounded=0;align=center;verticalAlign=middle;fontFamily=Helvetica;fontSize=12;fontColor=default;" vertex="1" parent="yJnb062Yw4gH2rbeKX1r-29">
          <mxGeometry width="280" height="160" as="geometry">
            <mxRectangle width="280" height="160" as="alternateBounds" />
          </mxGeometry>
        </mxCell>
        <mxCell id="yJnb062Yw4gH2rbeKX1r-31" value="" style="endArrow=none;html=1;rounded=0;fontFamily=Helvetica;fontSize=12;fontColor=default;strokeColor=#FFFFFF;" edge="1" parent="1">
          <mxGeometry width="50" height="50" relative="1" as="geometry">
            <mxPoint x="1630" y="100" as="sourcePoint" />
            <mxPoint x="1640" y="30" as="targetPoint" />
          </mxGeometry>
        </mxCell>
        <mxCell id="yJnb062Yw4gH2rbeKX1r-32" value="" style="shape=table;startSize=0;container=1;collapsible=0;childLayout=tableLayout;rounded=0;align=center;verticalAlign=middle;fontFamily=Helvetica;fontSize=12;fontColor=default;fillColor=none;gradientColor=none;html=1;strokeWidth=3;" vertex="1" parent="1">
          <mxGeometry x="980" y="180" width="280" height="320" as="geometry" />
        </mxCell>
        <mxCell id="yJnb062Yw4gH2rbeKX1r-33" value="" style="shape=tableRow;horizontal=0;startSize=0;swimlaneHead=0;swimlaneBody=0;strokeColor=inherit;top=0;left=0;bottom=0;right=0;collapsible=0;dropTarget=0;fillColor=none;points=[[0,0.5],[1,0.5]];portConstraint=eastwest;rounded=0;align=center;verticalAlign=middle;fontFamily=Helvetica;fontSize=12;fontColor=default;html=1;" vertex="1" parent="yJnb062Yw4gH2rbeKX1r-32">
          <mxGeometry width="280" height="160" as="geometry" />
        </mxCell>
        <mxCell id="yJnb062Yw4gH2rbeKX1r-34" value="&lt;b style=&quot;border-color: var(--border-color); font-size: 30px;&quot;&gt;Tầng 4&lt;/b&gt;" style="shape=partialRectangle;html=1;whiteSpace=wrap;connectable=0;strokeColor=inherit;overflow=hidden;fillColor=none;top=0;left=0;bottom=0;right=0;pointerEvents=1;rounded=0;align=center;verticalAlign=middle;fontFamily=Helvetica;fontSize=12;fontColor=default;" vertex="1" parent="yJnb062Yw4gH2rbeKX1r-33">
          <mxGeometry width="280" height="160" as="geometry">
            <mxRectangle width="280" height="160" as="alternateBounds" />
          </mxGeometry>
        </mxCell>
        <mxCell id="yJnb062Yw4gH2rbeKX1r-35" value="" style="shape=tableRow;horizontal=0;startSize=0;swimlaneHead=0;swimlaneBody=0;strokeColor=inherit;top=0;left=0;bottom=0;right=0;collapsible=0;dropTarget=0;fillColor=none;points=[[0,0.5],[1,0.5]];portConstraint=eastwest;rounded=0;align=center;verticalAlign=middle;fontFamily=Helvetica;fontSize=12;fontColor=default;html=1;" vertex="1" parent="yJnb062Yw4gH2rbeKX1r-32">
          <mxGeometry y="160" width="280" height="160" as="geometry" />
        </mxCell>
        <mxCell id="yJnb062Yw4gH2rbeKX1r-36" value="&lt;span style=&quot;border-color: var(--border-color); font-size: 30px;&quot;&gt;Human Resources&lt;/span&gt;" style="shape=partialRectangle;html=1;whiteSpace=wrap;connectable=0;strokeColor=inherit;overflow=hidden;fillColor=none;top=0;left=0;bottom=0;right=0;pointerEvents=1;rounded=0;align=center;verticalAlign=middle;fontFamily=Helvetica;fontSize=12;fontColor=default;" vertex="1" parent="yJnb062Yw4gH2rbeKX1r-35">
          <mxGeometry width="280" height="160" as="geometry">
            <mxRectangle width="280" height="160" as="alternateBounds" />
          </mxGeometry>
        </mxCell>
        <mxCell id="yJnb062Yw4gH2rbeKX1r-37" value="" style="endArrow=none;html=1;rounded=0;fontFamily=Helvetica;fontSize=12;fontColor=default;strokeColor=#FFFFFF;" edge="1" parent="1">
          <mxGeometry width="50" height="50" relative="1" as="geometry">
            <mxPoint x="980" y="280" as="sourcePoint" />
            <mxPoint x="990" y="210" as="targetPoint" />
          </mxGeometry>
        </mxCell>
      </root>
    </mxGraphModel>
  </diagram>
</mxfile>
